<svg
  version="1.1"
  id="Layer_1"
  xmlns="http://www.w3.org/2000/svg"
  xmlns:xlink="http://www.w3.org/1999/xlink"
  viewBox="0 0 64 64"
  xml:space="preserve"
  width="200px"
  height="200px"
>
  <style type="text/css">
    .st0 { fill: #00BFFF; }
    .st1 { fill: #FFFFFF; }
  </style>
  <circle class="st0" cx="32" cy="32" r="30" />
  <path
    class="st1"
    d="M32,2C15.4,2,2,15.4,2,32s13.4,30,30,30s30-13.4,30-30S48.6,2,32,2z M32,58C17.7,58,6,46.3,6,32
    S17.7,6,32,6s26,11.7,26,26S46.3,58,32,58z"
  />
  <path
    class="st1"
    d="M32.5,32.5L32.5,32.5c-0.6-0.6-1.3-1.2-1.9-1.8c-0.3-0.3-0.7-0.6-1-0.9c-1.4-1.4-3.1-2.3-4.9-2.8
    c-0.5-0.1-1-0.2-1.5-0.2c-0.6,0-1.1,0.4-1.1,1.1v4.6c0,0.6-0.4,1.1-1,1.1c-0.2,0-0.5,0-0.7-0.1c-0.2,0-0.5-0.1-0.7-0.1
    c-1.6,0-2.9,0.6-4,1.8c-1.5,1.5-2.1,3.4-2.1,5.4c0,1.3,0.3,2.5,1,3.7c0.6,1.1,1.6,2.1,2.7,2.7c1.2,0.6,2.4,1,3.7,1
    c1.9,0,3.9-0.8,5.3-2.2c0.5-0.5,0.8-1.1,0.8-1.8c0-0.4-0.1-0.7-0.2-1c-0.4-1.8-1.3-3.5-2.8-4.9c-0.3-0.3-0.6-0.7-0.9-1
    c-0.6-0.6-1.2-1.3-1.8-1.9l0,0c0.6,0.6,1.2,1.3,1.9,1.9c0.3,0.3,0.7,0.6,1,0.9c1.4,1.4,2.3,3.1,2.8,4.9c0.1,0.5,0.2,1,0.2,1.5
    c0,0.6-0.4,1.1-1.1,1.1h-4.6c-0.6,0-1.1,0.4-1.1,1c0,0.2,0,0.5,0.1,0.7c0,0.2,0.1,0.5,0.1,0.7c0,1.6-0.6,2.9-1.8,4
    c-1.5,1.5-3.4,2.1-5.4,2.1c-1.3,0-2.5-0.3-3.7-1c-1.1-0.6-2.1-1.6-2.7-2.7c-0.6-1.2-1-2.4-1-3.7c0-1.9,0.8-3.9,2.2-5.3
    c0.5-0.5,1.1-0.8,1.8-0.8c0.4,0,0.7,0.1,1,0.2c1.8,0.4,3.5,1.3,4.9,2.8c0.3,0.3,0.7,0.6,1,0.9c0.6,0.6,1.3,1.2,1.9,1.8
    c-0.6-0.6-1.2-1.3-1.9-1.9c-0.3-0.3-0.6-0.7-0.9-1c-1.4-1.4-2.3-3.1-2.8-4.9c-0.1-0.5-0.2-1-0.2-1.5c0-0.6,0.4-1.1,1.1-1.1h4.6
    c0.6,0,1.1-0.4,1.1-1c0-0.2,0-0.5-0.1-0.7c0-0.2-0.1-0.5-0.1-0.7c0-1.6,0.6-2.9,1.8-4c1.5-1.5,3.4-2.1,5.4-2.1
    c1.3,0,2.5,0.3,3.7,1c1.1,0.6,2.1,1.6,2.7,2.7c0.6,1.2,1,2.4,1,3.7c0,1.9-0.8,3.9-2.2,5.3C32.5,32.5,32.5,32.5,32.5,32.5z"
  />
  <path
    class="st1"
    d="M42.3,20.7L33.3,29.7c-0.4,0.4-0.4,1.1,0,1.5l2.4,2.4c0.4,0.4,1.1,0.4,1.5,0l9-9c0.4-0.4,0.4-1.1,0-1.5
    l-2.4-2.4C43.4,20.3,42.7,20.3,42.3,20.7z"
  />
  <path
    class="st1"
    d="M51,13c-1.7,0-3,1.3-3,3s1.3,3,3,3s3-1.3,3-3S52.7,13,51,13z M51,17c-0.6,0-1-0.4-1-1s0.4-1,1-1
    s1,0.4,1,1S51.6,17,51,17z"
  />
</svg>
